# xmcd CD database file
#
# Track frame offsets:
#	150
#	12497
#	28942
#	49210
#	68100
#	85317
#	97585
#	108750
#
# Disc length: 1859 seconds
#
# Revision: 0
# Processed by: cddbd v1.5PL3 Copyright (c) Steve Scherf et al.
# Submitted via: CDex 1.50beta9
#
DISCID=5c074108
DTITLE=fivesnatch - ANY TIME
DYEAR=1998
DGENRE=New Age
TTITLE0=EMBRACE
TTITLE1=EVENING GLOW
TTITLE2=DO ANYTHING
TTITLE3=IT'S UP TO YOU
TTITLE4=ANY TIME
TTITLE5=INSTANT AMERICAN
TTITLE6=NO REPLY
TTITLE7=AROUND THE WORLD
EXTD=YEAR: 1998
EXTT0=
EXTT1=
EXTT2=
EXTT3=
EXTT4=
EXTT5=
EXTT6=
EXTT7=
PLAYORDER=
